<?xml version="1.0" encoding="UTF-8" standalone="no"?>
<svg
   xmlns:dc="http://purl.org/dc/elements/1.1/"
   xmlns:cc="http://creativecommons.org/ns#"
   xmlns:rdf="http://www.w3.org/1999/02/22-rdf-syntax-ns#"
   xmlns:svg="http://www.w3.org/2000/svg"
   xmlns="http://www.w3.org/2000/svg"
   xmlns:sodipodi="http://sodipodi.sourceforge.net/DTD/sodipodi-0.dtd"
   xmlns:inkscape="http://www.inkscape.org/namespaces/inkscape"
   viewBox="0 0 400 200"
   height="200"
   width="400"
   xml:space="preserve"
   version="1.1"
   id="svg2"
   inkscape:version="0.91 r13725"
   sodipodi:docname="logo.svg"><sodipodi:namedview
     pagecolor="#ffffff"
     bordercolor="#666666"
     borderopacity="1"
     objecttolerance="10"
     gridtolerance="10"
     guidetolerance="10"
     inkscape:pageopacity="0"
     inkscape:pageshadow="2"
     inkscape:window-width="1879"
     inkscape:window-height="1056"
     id="namedview15"
     showgrid="false"
     fit-margin-top="0"
     fit-margin-left="0"
     fit-margin-right="0"
     fit-margin-bottom="16.93183"
     inkscape:zoom="0.745"
     inkscape:cx="200"
     inkscape:cy="105.42328"
     inkscape:window-x="1407"
     inkscape:window-y="24"
     inkscape:window-maximized="1"
     inkscape:current-layer="svg2" /><metadata
     id="metadata8"><rdf:RDF><cc:Work
         rdf:about=""><dc:format>image/svg+xml</dc:format><dc:type
           rdf:resource="http://purl.org/dc/dcmitype/StillImage" /><dc:title></dc:title></cc:Work></rdf:RDF></metadata><defs
     id="defs6" /><g
     transform="matrix(1.3157895,0,0,-1.3157895,-191.95951,332.89981)"
     id="g10"><g
       transform="matrix(0.98176136,0,0,0.98176136,5.4330942,3.3456586)"
       id="g4361"><path
         id="path32"
         style="fill:#201c1c;fill-opacity:1;fill-rule:nonzero;stroke:none"
         d="m 205.91801,243.84017 0,-17.3336 -43.39734,0 0,-17.95792 39.03444,0 0,-16.58562 -39.03444,0 0,-18.08158 44.76964,0 0,-17.21095 -64.22486,0 0,87.16967 62.85256,0"
         inkscape:connector-curvature="0" /><path
         id="path34"
         style="fill:#201c1c;fill-opacity:1;fill-rule:nonzero;stroke:none"
         d="m 451.33936,243.84017 0,-17.3336 -43.39833,0 0,-17.95792 39.03343,0 0,-16.58562 -39.03343,0 0,-18.08158 44.77197,0 0,-17.21095 -64.22352,0 0,87.16967 62.84988,0"
         inkscape:connector-curvature="0" /><g
         id="g36"><text
           id="text38"
           style="font-variant:normal;font-weight:600;font-size:23.3239994px;font-family:'Source Sans Pro';-inkscape-font-specification:SourceSansPro-Semibold;writing-mode:lr-tb;fill:#ef9d18;fill-opacity:1;fill-rule:nonzero;stroke:none"
           transform="matrix(1,0,0,-1,166.065,117.641)"><tspan
             id="tspan40"
             y="0"
             x="0 14.997588 30.34478 38.787659 54.181637 68.688934 77.132294 92.525887 106.98682 114.10059 123.59373 138.73045 149.76266 156.87643 171.40723 178.52048 191.62889 206.97461 221.50591 236.89954 250.98744">Thinking for a change</tspan></text>
</g><path
         id="path42"
         style="fill:#201c1c;fill-opacity:1;fill-rule:nonzero;stroke:none"
         d="m 379.01771,170.13853 0,30.92829 -19.57854,0 0,-23.94512 c -4.49191,-2.57716 -10.10344,-3.86558 -16.83796,-3.86558 -6.73451,0 -12.53388,2.47389 -17.39576,7.42067 -4.86423,4.94543 -7.29533,11.53423 -7.29533,19.76571 0,8.23014 2.53404,14.85971 7.60749,19.89138 5.06943,5.02899 11.30496,7.54466 18.70456,7.54466 3.82347,0 7.37956,-0.64471 10.66493,-1.93346 3.28203,-1.28975 6.87823,-3.63864 10.78525,-7.04601 l 10.10344,14.59201 c -9.23113,8.23014 -20.09993,12.34538 -32.61309,12.34538 -6.9952,0 -13.41789,-1.35392 -19.2704,-4.05642 L 297.94955,203.901 c -0.0702,-1.11763 -0.11731,-2.24562 -0.11731,-3.39567 0,-12.93026 4.34218,-23.63296 13.03187,-32.11243 8.68568,-8.47947 19.43316,-12.72004 32.23509,-12.72004 15.2972,0 27.26893,4.82144 35.91851,14.46567"
         inkscape:connector-curvature="0" /><path
         id="path44"
         style="fill:#201c1c;fill-opacity:1;fill-rule:nonzero;stroke:none"
         d="m 270.47074,180.61395 c -4.78234,-4.48956 -11.61812,-6.7325 -20.51537,-6.7325 l -12.34538,0 0,52.99978 10.84908,0 c 9.89355,0 17.22933,-2.30678 22.01167,-6.92201 4.77966,-4.6139 7.17133,-11.20436 7.17133,-19.76605 0,-8.56302 -2.39167,-15.08932 -7.17133,-19.57922 z m 26.75055,20.07921 c 0,13.54891 -4.15969,24.12928 -12.47071,31.73777 -8.31637,7.60616 -20.24766,11.40924 -35.79252,11.40924 l -30.80196,0 0,-87.16967 29.80432,0 c 10.65457,0 19.55181,1.62932 26.70878,4.87359 l 22.18011,32.38515 c 0.24264,2.17108 0.37198,4.42205 0.37198,6.76392"
         inkscape:connector-curvature="0" /><path
         id="path46"
         style="fill:#ef9d18;fill-opacity:1;fill-rule:nonzero;stroke:none"
         d="m 265.98218,148.92732 0,9.61916 66.22482,95.74973 0,-9.61916 -66.22482,-95.74973"
         inkscape:connector-curvature="0" /></g></g></svg>