<?xml version="1.0" encoding="UTF-8" standalone="no"?>
<svg
   xmlns:dc="http://purl.org/dc/elements/1.1/"
   xmlns:cc="http://creativecommons.org/ns#"
   xmlns:rdf="http://www.w3.org/1999/02/22-rdf-syntax-ns#"
   xmlns:svg="http://www.w3.org/2000/svg"
   xmlns="http://www.w3.org/2000/svg"
   xmlns:sodipodi="http://sodipodi.sourceforge.net/DTD/sodipodi-0.dtd"
   xmlns:inkscape="http://www.inkscape.org/namespaces/inkscape"
   viewBox="0 0 400 200"
   height="200"
   width="400"
   xml:space="preserve"
   version="1.1"
   id="svg2"
   inkscape:version="0.91 r13725"
   sodipodi:docname="logo.svg"><sodipodi:namedview
     pagecolor="#ffffff"
     bordercolor="#666666"
     borderopacity="1"
     objecttolerance="10"
     gridtolerance="10"
     guidetolerance="10"
     inkscape:pageopacity="0"
     inkscape:pageshadow="2"
     inkscape:window-width="1559"
     inkscape:window-height="876"
     id="namedview15"
     showgrid="false"
     fit-margin-top="0"
     fit-margin-left="0"
     fit-margin-right="0"
     fit-margin-bottom="16.93183"
     inkscape:zoom="0.745"
     inkscape:cx="172.14013"
     inkscape:cy="105.42328"
     inkscape:window-x="1407"
     inkscape:window-y="24"
     inkscape:window-maximized="1"
     inkscape:current-layer="text38" /><metadata
     id="metadata8"><rdf:RDF><cc:Work
         rdf:about=""><dc:format>image/svg+xml</dc:format><dc:type
           rdf:resource="http://purl.org/dc/dcmitype/StillImage" /><dc:title /></cc:Work></rdf:RDF></metadata><defs
     id="defs6" /><path
     id="path32"
     style="fill:#201c1c;fill-opacity:1;fill-rule:nonzero;stroke:none"
     d="m 81.192394,13.50702 0,22.391393 -56.060306,0 0,23.197885 50.42435,0 0,21.42516 -50.42435,0 0,23.357632 57.833031,0 0,22.23295 -82.965115359415,0 0,-112.60502 81.192390359415,0"
     inkscape:connector-curvature="0" /><path
     id="path34"
     style="fill:#201c1c;fill-opacity:1;fill-rule:nonzero;stroke:none"
     d="m 398.22556,13.50702 0,22.391393 -56.06159,0 0,23.197885 50.42305,0 0,21.42516 -50.42305,0 0,23.357632 57.83604,0 0,22.23295 -82.96338,0 0,-112.60502 81.18893,0"
     inkscape:connector-curvature="0" /><g
     id="g36"
     transform="matrix(1.2917913,0,0,-1.2917913,-184.8107,328.49763)"><g
       transform="matrix(1,0,0,-1,166.065,117.641)"
       style="font-variant:normal;font-weight:600;font-size:23.3239994px;font-family:'Source Sans Pro';-inkscape-font-specification:SourceSansPro-Semibold;writing-mode:lr-tb;fill:#ef9d18;fill-opacity:1;fill-rule:nonzero;stroke:none"
       id="text38"><path
         d="m 5.0146599,0 0,-12.968144 -4.40823592,0 0,-2.285752 11.52205602,0 0,2.285752 -4.4082362,0 0,12.968144 -2.7055839,0 z"
         style=""
         id="path4193" /><path
         d="m 16.70024,0 0,-16.466744 2.68226,0 0,4.244968 -0.0933,2.21578 q 0.723044,-0.676396 1.586032,-1.189524 0.886312,-0.536452 2.075836,-0.536452 1.842596,0 2.68226,1.189524 0.839664,1.1662002 0.839664,3.3586562 l 0,7.1837918 -2.68226,0 0,-6.8339318 q 0,-1.422764 -0.419832,-2.005864 -0.419832,-0.5831 -1.376116,-0.5831 -0.746368,0 -1.329468,0.373184 -0.559776,0.34986 -1.28282,1.04958 L 19.3825,0 16.70024,0 Z"
         style=""
         id="path4195" /><path
         d="m 32.047432,0 0,-11.452084 2.68226,0 0,11.452084 -2.68226,0 z m 1.352792,-13.457948 q -0.723044,0 -1.189524,-0.419832 -0.46648,-0.419832 -0.46648,-1.096228 0,-0.676396 0.46648,-1.096228 0.46648,-0.443156 1.189524,-0.443156 0.723044,0 1.189524,0.443156 0.46648,0.419832 0.46648,1.096228 0,0.676396 -0.46648,1.096228 -0.46648,0.419832 -1.189524,0.419832 z"
         style=""
         id="path4197" /><path
         d="m 40.490311,0 0,-11.452084 2.21578,0 0.186592,1.5393843 0.0933,0 q 0.769692,-0.7463683 1.656004,-1.2828203 0.909636,-0.536452 2.099159,-0.536452 1.842596,0 2.68226,1.189524 0.839664,1.1662002 0.839664,3.3586562 l 0,7.1837918 -2.68226,0 0,-6.8339318 q 0,-1.422764 -0.419832,-2.005864 -0.419832,-0.5831 -1.376115,-0.5831 -0.746368,0 -1.329468,0.373184 -0.559776,0.34986 -1.28282,1.04958 l 0,8.0001318 -2.68226,0 z"
         style=""
         id="path4199" /><path
         d="m 55.884289,0 0,-16.466744 2.635612,0 0,10.2858842 0.06997,0 4.244968,-5.2712242 2.938824,0 -3.918432,4.6648002 L 66.170173,0 l -2.9155,0 -2.938824,-4.9680119 -1.795948,2.052512 0,2.9154999 -2.635612,0 z"
         style=""
         id="path4201" /><path
         d="m 70.391586,0 0,-11.452084 2.68226,0 0,11.452084 -2.68226,0 z m 1.352792,-13.457948 q -0.723044,0 -1.189524,-0.419832 -0.46648,-0.419832 -0.46648,-1.096228 0,-0.676396 0.46648,-1.096228 0.46648,-0.443156 1.189524,-0.443156 0.723044,0 1.189524,0.443156 0.46648,0.419832 0.46648,1.096228 0,0.676396 -0.46648,1.096228 -0.46648,0.419832 -1.189524,0.419832 z"
         style=""
         id="path4203" /><path
         d="m 78.834946,0 0,-11.452084 2.21578,0 0.186592,1.5393843 0.0933,0 q 0.769692,-0.7463683 1.656004,-1.2828203 0.909636,-0.536452 2.099159,-0.536452 1.842596,0 2.68226,1.189524 0.839664,1.1662002 0.839664,3.3586562 l 0,7.1837918 -2.68226,0 0,-6.8339318 q 0,-1.422764 -0.419832,-2.005864 -0.419832,-0.5831 -1.376115,-0.5831 -0.746368,0 -1.329468,0.373184 -0.559776,0.34986 -1.28282,1.04958 l 0,8.0001318 -2.68226,0 z"
         style=""
         id="path4205" /><path
         d="m 98.216942,5.0613079 q -1.026256,0 -1.912568,-0.186592 -0.862988,-0.186592 -1.492736,-0.559776 -0.629748,-0.373184 -1.002931,-0.93296 -0.34986,-0.559776 -0.34986,-1.306144 0,-0.7230439 0.419832,-1.35279192 Q 94.29851,0.11662 95.091526,-0.37318399 l 0,-0.093296 Q 94.64837,-0.74636798 94.345158,-1.212848 94.06527,-1.679328 94.06527,-2.3790479 q 0,-0.676396 0.373184,-1.212848 0.396508,-0.559776 0.886312,-0.909636 l 0,-0.093296 q -0.5831,-0.443156 -1.04958,-1.212848 -0.443155,-0.7930159 -0.443155,-1.8192719 0,-0.979608 0.373183,-1.7493 0.373184,-0.7696922 0.979608,-1.2828202 0.629748,-0.536452 1.446088,-0.793016 0.81634,-0.279888 1.725976,-0.279888 0.46648,0 0.886312,0.0933 0.443156,0.06997 0.793012,0.186592 l 4.10503,0 0,1.9825402 -2.09916,0 q 0.27989,0.326536 0.46648,0.839664 0.18659,0.489804 0.18659,1.096228 0,0.956284 -0.34986,1.6793279 -0.32654,0.723044 -0.90964,1.212848 -0.5831,0.489804 -1.37611,0.746368 -0.793018,0.256564 -1.702654,0.256564 -0.373184,0 -0.769692,-0.069972 -0.396508,-0.069972 -0.793016,-0.23324 -0.256564,0.23324 -0.419832,0.46648 -0.139944,0.23324 -0.139944,0.629748 0,0.489804 0.396508,0.769692 0.419832,0.2798879 1.469412,0.2798879 l 2.029188,0 q 2.07584,0 3.12542,0.676396 1.0729,0.65307201 1.0729,2.145808 0,0.839664 -0.44316,1.5860319 -0.41983,0.746368 -1.21284,1.28282 -0.79302,0.536452 -1.9359,0.839664 -1.119548,0.326536 -2.518988,0.326536 z m 0.139944,-10.3791798 q 0.81634,0 1.39944,-0.5830999 0.583104,-0.606424 0.583104,-1.725976 0,-1.072904 -0.583104,-1.656004 -0.559776,-0.6064239 -1.39944,-0.6064239 -0.839664,0 -1.422764,0.5830999 -0.5831,0.5831 -0.5831,1.679328 0,1.119552 0.5831,1.725976 0.5831,0.5830999 1.422764,0.5830999 z m 0.279888,8.6298798 q 1.399436,0 2.239106,-0.559776 0.86299,-0.536452 0.86299,-1.2828199 0,-0.67639602 -0.53646,-0.90963601 -0.51312,-0.23324 -1.492732,-0.23324 l -1.562708,0 q -0.93296,0 -1.562708,-0.16326799 -0.886312,0.67639598 -0.886312,1.51606 0,0.7696919 0.769692,1.1895239 0.793016,0.443156 2.169132,0.443156 z"
         style=""
         id="path4207" /><path
         d="m 116.26973,0 0,-9.3295998 -1.53939,0 0,-2.0058642 1.53939,-0.11662 0,-1.189524 q 0,-0.886312 0.20991,-1.63268 0.20992,-0.769692 0.6764,-1.306144 0.46648,-0.559776 1.1662,-0.862988 0.72304,-0.303212 1.7493,-0.303212 0.60642,0 1.14287,0.11662 0.55978,0.11662 0.95629,0.279888 l -0.51313,2.005864 q -0.62975,-0.279888 -1.2595,-0.279888 -1.44608,0 -1.44608,1.935892 l 0,1.236172 2.2391,0 0,2.1224842 -2.2391,0 0,9.3295998 -2.68226,0 z"
         style=""
         id="path4209" /><path
         d="m 129.9845,0.27988799 q -1.0729,0 -2.05251,-0.39650799 -0.97961,-0.39650799 -1.7493,-1.1662 -0.74637,-0.7696919 -1.18952,-1.8892439 -0.44316,-1.119552 -0.44316,-2.542316 0,-1.4227639 0.44316,-2.5423159 0.44315,-1.119552 1.18952,-1.8892442 0.76969,-0.769692 1.7493,-1.1662 0.97961,-0.419832 2.05251,-0.419832 1.07291,0 2.05251,0.419832 1.00294,0.396508 1.7493,1.1662 0.74637,0.7696922 1.18953,1.8892442 0.46648,1.119552 0.46648,2.5423159 0,1.422764 -0.46648,2.542316 -0.44316,1.119552 -1.18953,1.8892439 -0.74636,0.76969201 -1.7493,1.1662 -0.9796,0.39650799 -2.05251,0.39650799 z m 0,-2.19245599 q 1.2595,0 1.98254,-1.0262559 0.72305,-1.04958 0.72305,-2.775556 0,-1.7492999 -0.72305,-2.7755559 -0.72304,-1.04958 -1.98254,-1.04958 -1.25949,0 -1.98254,1.04958 -0.69972,1.026256 -0.69972,2.7755559 0,1.725976 0.69972,2.775556 0.72305,1.0262559 1.98254,1.0262559 z"
         style=""
         id="path4211" /><path
         d="m 140.43311,0 0,-11.452084 2.21578,0 0.18659,2.0291882 0.0933,0 q 0.60643,-1.1195522 1.46942,-1.7026522 0.86298,-0.606424 1.77262,-0.606424 0.81634,0 1.30614,0.23324 l -0.46648,2.3324002 q -0.30321,-0.093296 -0.55977,-0.139944 -0.25657,-0.046648 -0.62975,-0.046648 -0.6764,0 -1.42276,0.536452 -0.74637,0.513128 -1.28282,1.819272 l 0,6.9971998 -2.68226,0 z"
         style=""
         id="path4213" /><path
         d="m 161.35464,0.27988799 q -1.51606,0 -2.44902,-0.90963597 -0.93296,-0.93296002 -0.93296,-2.44901992 0,-0.909636 0.37319,-1.609356 0.3965,-0.723044 1.21284,-1.2361719 0.83967,-0.513128 2.09916,-0.862988 1.28282,-0.34986 3.05545,-0.536452 -0.0233,-0.443156 -0.13995,-0.839664 -0.0933,-0.419832 -0.34986,-0.723044 -0.23324,-0.326536 -0.62974,-0.489804 -0.39651,-0.186592 -0.97961,-0.186592 -0.83967,0 -1.65601,0.326536 -0.79301,0.326536 -1.5627,0.793016 l -0.97961,-1.7959482 q 0.95628,-0.606424 2.14581,-1.04958 1.18952,-0.443156 2.56564,-0.443156 2.1458,0 3.19538,1.28282 1.07291,1.2594962 1.07291,3.6618682 l 0,6.7872838 -2.21578,0 -0.18659,-1.259496 -0.0933,0 q -0.76969,0.65307202 -1.656,1.096228 -0.86299,0.44315599 -1.88925,0.44315599 z m 0.86299,-2.09915999 q 0.69972,0 1.2595,-0.3265359 0.5831,-0.326536 1.23617,-0.93296 l 0,-2.56564 q -1.1662,0.139944 -1.95922,0.373184 -0.79301,0.23324 -1.28282,0.536452 -0.4898,0.279888 -0.69972,0.653072 -0.20991,0.373184 -0.20991,0.793016 0,0.769692 0.46648,1.119552 0.46648,0.3498599 1.18952,0.3498599 z"
         style=""
         id="path4215" /><path
         d="m 185.00455,0.27988799 q -1.1662,0 -2.19246,-0.39650799 -1.00293,-0.39650799 -1.7493,-1.1662 -0.74636,-0.7696919 -1.1662,-1.8892439 -0.41983,-1.119552 -0.41983,-2.542316 0,-1.4227639 0.46648,-2.5423159 0.46648,-1.119552 1.2595,-1.8892442 0.79301,-0.769692 1.81927,-1.1662 1.04958,-0.419832 2.19246,-0.419832 1.11955,0 1.91256,0.373184 0.81634,0.373184 1.44609,0.909636 l -1.30614,1.7493002 q -0.46648,-0.396508 -0.93296,-0.606424 -0.44316,-0.23324 -0.97961,-0.23324 -1.39944,0 -2.26243,1.04958 -0.86299,1.026256 -0.86299,2.7755559 0,1.725976 0.83967,2.775556 0.86299,1.0262559 2.21578,1.0262559 0.67639,0 1.25949,-0.2798879 0.60643,-0.303212 1.09623,-0.69972 l 1.09623,1.7726239 q -0.81634,0.69972001 -1.79595,1.04958 -0.95628,0.34985999 -1.93589,0.34985999 z"
         style=""
         id="path4217" /><path
         d="m 193.33154,0 0,-16.466744 2.68226,0 0,4.244968 -0.0933,2.21578 q 0.72304,-0.676396 1.58603,-1.189524 0.88631,-0.536452 2.07583,-0.536452 1.8426,0 2.68226,1.189524 0.83967,1.1662002 0.83967,3.3586562 l 0,7.1837918 -2.68226,0 0,-6.8339318 q 0,-1.422764 -0.41983,-2.005864 -0.41984,-0.5831 -1.37612,-0.5831 -0.74637,0 -1.32947,0.373184 -0.55977,0.34986 -1.28282,1.04958 l 0,8.0001318 -2.68226,0 z"
         style=""
         id="path4219" /><path
         d="m 211.45282,0.27988799 q -1.51606,0 -2.44902,-0.90963597 -0.93296,-0.93296002 -0.93296,-2.44901992 0,-0.909636 0.37318,-1.609356 0.39651,-0.723044 1.21285,-1.2361719 0.83966,-0.513128 2.09916,-0.862988 1.28282,-0.34986 3.05544,-0.536452 -0.0233,-0.443156 -0.13994,-0.839664 -0.0933,-0.419832 -0.34986,-0.723044 -0.23324,-0.326536 -0.62975,-0.489804 -0.39651,-0.186592 -0.97961,-0.186592 -0.83966,0 -1.656,0.326536 -0.79302,0.326536 -1.56271,0.793016 l -0.97961,-1.7959482 q 0.95629,-0.606424 2.14581,-1.04958 1.18953,-0.443156 2.56564,-0.443156 2.14581,0 3.19539,1.28282 1.0729,1.2594962 1.0729,3.6618682 l 0,6.7872838 -2.21578,0 -0.18659,-1.259496 -0.0933,0 q -0.7697,0.65307202 -1.65601,1.096228 -0.86299,0.44315599 -1.88924,0.44315599 z m 0.86299,-2.09915999 q 0.69972,0 1.25949,-0.3265359 0.5831,-0.326536 1.23617,-0.93296 l 0,-2.56564 q -1.1662,0.139944 -1.95921,0.373184 -0.79302,0.23324 -1.28282,0.536452 -0.48981,0.279888 -0.69972,0.653072 -0.20992,0.373184 -0.20992,0.793016 0,0.769692 0.46648,1.119552 0.46648,0.3498599 1.18953,0.3498599 z"
         style=""
         id="path4221" /><path
         d="m 223.20856,0 0,-11.452084 2.21578,0 0.18659,1.5393843 0.0933,0 q 0.76969,-0.7463683 1.656,-1.2828203 0.90963,-0.536452 2.09916,-0.536452 1.84259,0 2.68226,1.189524 0.83966,1.1662002 0.83966,3.3586562 l 0,7.1837918 -2.68226,0 0,-6.8339318 q 0,-1.422764 -0.41983,-2.005864 -0.41983,-0.5831 -1.37612,-0.5831 -0.74636,0 -1.32946,0.373184 -0.55978,0.34986 -1.28282,1.04958 l 0,8.0001318 -2.68226,0 z"
         style=""
         id="path4223" /><path
         d="m 242.59059,5.0613079 q -1.02625,0 -1.91257,-0.186592 -0.86298,-0.186592 -1.49273,-0.559776 -0.62975,-0.373184 -1.00293,-0.93296 -0.34986,-0.559776 -0.34986,-1.306144 0,-0.7230439 0.41983,-1.35279192 0.41983,-0.60642398 1.21285,-1.09622797 l 0,-0.093296 q -0.44316,-0.27988799 -0.74637,-0.74636801 -0.27989,-0.46648 -0.27989,-1.1661999 0,-0.676396 0.37318,-1.212848 0.39651,-0.559776 0.88632,-0.909636 l 0,-0.093296 q -0.5831,-0.443156 -1.04958,-1.212848 -0.44316,-0.7930159 -0.44316,-1.8192719 0,-0.979608 0.37318,-1.7493 0.37319,-0.7696922 0.97961,-1.2828202 0.62975,-0.536452 1.44609,-0.793016 0.81634,-0.279888 1.72598,-0.279888 0.46648,0 0.88631,0.0933 0.44315,0.06997 0.79301,0.186592 l 4.10503,0 0,1.9825402 -2.09916,0 q 0.27989,0.326536 0.46648,0.839664 0.18659,0.489804 0.18659,1.096228 0,0.956284 -0.34986,1.6793279 -0.32654,0.723044 -0.90964,1.212848 -0.5831,0.489804 -1.37611,0.746368 -0.79302,0.256564 -1.70265,0.256564 -0.37319,0 -0.7697,-0.069972 -0.3965,-0.069972 -0.79301,-0.23324 -0.25657,0.23324 -0.41983,0.46648 -0.13995,0.23324 -0.13995,0.629748 0,0.489804 0.39651,0.769692 0.41983,0.2798879 1.46941,0.2798879 l 2.02919,0 q 2.07584,0 3.12542,0.676396 1.0729,0.65307201 1.0729,2.145808 0,0.839664 -0.44316,1.5860319 -0.41983,0.746368 -1.21284,1.28282 -0.79302,0.536452 -1.9359,0.839664 -1.11955,0.326536 -2.51899,0.326536 z m 0.13995,-10.3791798 q 0.81634,0 1.39944,-0.5830999 0.5831,-0.606424 0.5831,-1.725976 0,-1.072904 -0.5831,-1.656004 -0.55978,-0.6064239 -1.39944,-0.6064239 -0.83967,0 -1.42277,0.5830999 -0.5831,0.5831 -0.5831,1.679328 0,1.119552 0.5831,1.725976 0.5831,0.5830999 1.42277,0.5830999 z m 0.27988,8.6298798 q 1.39944,0 2.23911,-0.559776 0.86299,-0.536452 0.86299,-1.2828199 0,-0.67639602 -0.53646,-0.90963601 -0.51312,-0.23324 -1.49273,-0.23324 l -1.56271,0 q -0.93296,0 -1.56271,-0.16326799 -0.88631,0.67639598 -0.88631,1.51606 0,0.7696919 0.76969,1.1895239 0.79302,0.443156 2.16913,0.443156 z"
         style=""
         id="path4225" /><path
         d="m 257.58813,0.27988799 q -1.18952,0 -2.21578,-0.39650799 -1.02625,-0.41983199 -1.79594,-1.189524 -0.7697,-0.7696919 -1.21285,-1.8659199 -0.41983,-1.119552 -0.41983,-2.542316 0,-1.3994399 0.44315,-2.5189919 0.44316,-1.119552 1.1662,-1.8892442 0.74637,-0.769692 1.70265,-1.189524 0.95629,-0.419832 1.95922,-0.419832 1.1662,0 2.05251,0.396508 0.88631,0.396508 1.46941,1.119552 0.60643,0.7230442 0.90964,1.7259762 0.30321,1.002932 0.30321,2.192456 0,0.396508 -0.0466,0.7463679 -0.0233,0.34986 -0.07,0.559776 l -7.27709,0 q 0.1866,1.539384 1.07291,2.379048 0.90963,0.8163399 2.30907,0.8163399 0.74637,0 1.37612,-0.2099159 0.65307,-0.23324 1.28282,-0.629748 l 0.90964,1.67932792 q -0.81634,0.53645199 -1.81928,0.88631198 -1.00293,0.34985999 -2.09916,0.34985999 z m -3.05544,-7.09049579 5.08463,0 q 0,-1.329468 -0.5831,-2.075836 -0.55977,-0.769692 -1.7493,-0.769692 -1.02625,0 -1.79595,0.723044 -0.76969,0.723044 -0.95628,2.122484 z"
         style=""
         id="path4227" /></g></g><path
     id="path42"
     style="fill:#201c1c;fill-opacity:1;fill-rule:nonzero;stroke:none"
     d="m 304.80108,108.71416 0,-39.952899 -25.29139,0 0,30.932098 c -5.80261,3.329151 -13.05153,4.993521 -21.75113,4.993521 -8.69958,0 -16.19115,-3.19575 -22.47169,-9.585955 -6.28357,-6.388464 -9.42404,-14.899818 -9.42404,-25.533173 0,-10.631623 3.27345,-19.195644 9.82729,-25.695511 6.54864,-6.496406 14.60365,-9.746126 24.16238,-9.746126 4.93913,0 9.53286,0.83283 13.77687,2.497626 4.2397,1.666088 8.88524,4.700364 13.93229,9.101975 L 300.6132,26.875884 C 288.6885,16.244261 274.64828,10.92823 258.48389,10.92823 c -9.03634,0 -17.33311,1.748982 -24.89333,5.240048 l -33.51262,48.931814 c -0.0907,1.443745 -0.15154,2.900873 -0.15154,4.386497 0,16.703197 5.60919,30.528851 16.83445,41.482561 11.22009,10.9537 25.10359,16.43163 41.64101,16.43163 19.76079,0 35.22577,-6.22829 46.39922,-18.68662"
     inkscape:connector-curvature="0" /><path
     id="path44"
     style="fill:#201c1c;fill-opacity:1;fill-rule:nonzero;stroke:none"
     d="m 164.58105,95.182101 c -6.17779,5.799579 -15.00819,8.696989 -26.50158,8.696989 l -15.94765,0 0,-68.464659 14.01475,0 c 12.7804,0 22.25669,2.979878 28.43448,8.941792 6.17432,5.960196 9.26386,14.473695 9.26386,25.533612 0,11.061634 -3.08954,19.492252 -9.26386,25.292266 z m 34.55613,-25.938149 c 0,-17.502364 -5.37345,-31.169994 -16.10956,-40.998575 C 172.28461,18.419805 156.87187,13.50702 136.79116,13.50702 l -39.789708,0 0,112.60502 38.500958,0 c 13.76348,0 25.25686,-2.10474 34.50217,-6.29566 l 28.65208,-41.834855 c 0.31344,-2.804582 0.48052,-5.712366 0.48052,-8.737573"
     inkscape:connector-curvature="0" /><path
     id="path46"
     style="fill:#ef9d18;fill-opacity:1;fill-rule:nonzero;stroke:none"
     d="m 158.78277,136.11461 0,-12.42594 L 244.33141,-1.700973e-6 244.33141,12.425946 158.78277,136.11461"
     inkscape:connector-curvature="0" /></svg>